/* XPM */
static const char *DECIMATE_XPM[] = {
"16 16 256 2",
"`` c None",
"`. c #dbacac",
"`# c #b73030",
"`a c #c76565",
"`b c #e3c7c7",
"`c c #cc7979",
"`d c #be4a4a",
"`e c #d39090",
"`f c #b33030",
"`g c #fc7474",
"`h c #f36b6b",
"`i c #d04848",
"`j c #c66f6f",
"`k c #b53232",
"`l c #b73e3e",
"`m c #daaaaa",
"`n c #efefef",
"`o c #cf9090",
"`p c #ae3030",
"`q c #cc4949",
"`r c #ea6262",
"`s c #e35a5a",
"`t c #b93939",
"`u c #dec0c0",
"`v c #c36363",
"`w c #c44242",
"`x c #b64646",
"`y c #e6d2d2",
"`z c #bf6e6e",
"`A c #a83030",
"`B c #cf4c4c",
"`C c #d95252",
"`D c #bd3d3d",
"`E c #c34444",
"`F c #b14949",
"`G c #e7d9d9",
"`H c #dcc0c0",
"`I c #a13030",
"`J c #be3939",
"`K c #bd3636",
"`L c #a62f2f",
"`M c #e6dcdc",
"`N c #a64a4a",
"`O c #ae2e2e",
"`P c #b52626",
"`Q c #9f3030",
"`R c #a82d2d",
"`S c #9e2e2e",
"`T c #af6767",
"`U c #ad2b2b",
"`V c #be1e1e",
"`W c #9b2e2e",
"`X c #c49292",
"`Y c #a24c4c",
"`Z c #a02929",
"`0 c #9e4444",
"`1 c #be8f8f",
"`2 c #a22c2c",
"`3 c #cc1717",
"`4 c #a92525",
"`5 c #b88181",
"`6 c #aa6767",
"`7 c #9a2a2a",
"`8 c #af7171",
".` c #e0d2d2",
".. c #883030",
".# c #d11818",
".a c #c41a1a",
".b c #944646",
".c c #e7e0e0",
".d c #ad7575",
".e c #924242",
".f c #ceb2b2",
".g c #a46c6c",
".h c #a72121",
".i c #dd1212",
".j c #8c2b2b",
".k c #d4c0c0",
".l c #a87373",
".m c #a56f6f",
".n c #edecec",
".o c #7c3030",
".p c #db1111",
".q c #b31c1c",
".r c #a06d6d",
".s c #ae8383",
".t c #d3c0c0",
".u c #c5acac",
".v c #773030",
".w c #824141",
".x c #ddd1d1",
".y c #dcd0d0",
".z c #cebaba",
".A c #000000",
".B c #000000",
".C c #000000",
".D c #000000",
".E c #000000",
".F c #000000",
".G c #000000",
".H c #000000",
".I c #000000",
".J c #000000",
".K c #000000",
".L c #000000",
".M c #000000",
".N c #000000",
".O c #000000",
".P c #000000",
".Q c #000000",
".R c #000000",
".S c #000000",
".T c #000000",
".U c #000000",
".V c #000000",
".W c #000000",
".X c #000000",
".Y c #000000",
".Z c #000000",
".0 c #000000",
".1 c #000000",
".2 c #000000",
".3 c #000000",
".4 c #000000",
".5 c #000000",
".6 c #000000",
".7 c #000000",
".8 c #000000",
"#` c #000000",
"#. c #000000",
"## c #000000",
"#a c #000000",
"#b c #000000",
"#c c #000000",
"#d c #000000",
"#e c #000000",
"#f c #000000",
"#g c #000000",
"#h c #000000",
"#i c #000000",
"#j c #000000",
"#k c #000000",
"#l c #000000",
"#m c #000000",
"#n c #000000",
"#o c #000000",
"#p c #000000",
"#q c #000000",
"#r c #000000",
"#s c #000000",
"#t c #000000",
"#u c #000000",
"#v c #000000",
"#w c #000000",
"#x c #000000",
"#y c #000000",
"#z c #000000",
"#A c #000000",
"#B c #000000",
"#C c #000000",
"#D c #000000",
"#E c #000000",
"#F c #000000",
"#G c #000000",
"#H c #000000",
"#I c #000000",
"#J c #000000",
"#K c #000000",
"#L c #000000",
"#M c #000000",
"#N c #000000",
"#O c #000000",
"#P c #000000",
"#Q c #000000",
"#R c #000000",
"#S c #000000",
"#T c #000000",
"#U c #000000",
"#V c #000000",
"#W c #000000",
"#X c #000000",
"#Y c #000000",
"#Z c #000000",
"#0 c #000000",
"#1 c #000000",
"#2 c #000000",
"#3 c #000000",
"#4 c #000000",
"#5 c #000000",
"#6 c #000000",
"#7 c #000000",
"#8 c #000000",
"a` c #000000",
"a. c #000000",
"a# c #000000",
"aa c #000000",
"ab c #000000",
"ac c #000000",
"ad c #000000",
"ae c #000000",
"af c #000000",
"ag c #000000",
"ah c #000000",
"ai c #000000",
"aj c #000000",
"ak c #000000",
"al c #000000",
"am c #000000",
"an c #000000",
"ao c #000000",
"ap c #000000",
"aq c #000000",
"ar c #000000",
"as c #000000",
"at c #000000",
"au c #000000",
"av c #000000",
"aw c #000000",
"ax c #000000",
"ay c #000000",
"az c #000000",
"aA c #000000",
"aB c #000000",
"aC c #000000",
"aD c #000000",
"aE c #000000",
"aF c #000000",
"aG c #000000",
"aH c #000000",
"aI c #000000",
"aJ c #000000",
"aK c #000000",
"aL c #000000",
"aM c #000000",
"aN c #000000",
"aO c #000000",
"aP c #000000",
"aQ c #000000",
"aR c #000000",
"aS c #000000",
"aT c #000000",
"aU c #000000",
"aV c #000000",
"aW c #000000",
"aX c #000000",
"aY c #000000",
"aZ c #000000",
"a0 c #000000",
"a1 c #000000",
"a2 c #000000",
"a3 c #000000",
"a4 c #000000",
"a5 c #000000",
"a6 c #000000",
"a7 c #000000",
"a8 c #000000",
"````````````````````````````````",
"````````````````````````````````",
"`````.`#`#`a```````````b`c`d`e``",
"`````f`g`h`i`f```````j`k`l`m`n``",
"`````o`p`q`r`s`t`u`v`w`x`y``````",
"```````u`z`A`B`C`D`E`F`G````````",
"```````````H`I`J`K`L````````````",
"`````````M`N`O`P`Q`R`S``````````",
"`````````T`U`V`W`X`Y`Z`0````````",
"```````1`2`3`4`5`````6`7`8``````",
"````.`...#.a.b.c``````.d.e.f````",
"````.g.h.i.j.k``````````.l.m.n``",
"````.o.p.q.r``````````````.s.t``",
"````.u.v.w.x``````````````.y.z``",
"````````````````````````````````",
"````````````````````````````````"
};
