/* XPM */
static const char *ERODE_XPM[] = {
"16 16 256 2",
"`` c None",
"`. c #e2e2e4",
"`# c #b2b2bf",
"`a c #9999ac",
"`b c #a2a2b3",
"`c c #c4c4d5",
"`d c #d7d7e8",
"`e c #cbcbdc",
"`f c #b4b4c4",
"`g c #a1a1b2",
"`h c #b0b0bd",
"`i c #c2c2d3",
"`j c #dcdced",
"`k c #b2b2c3",
"`l c #9898ab",
"`m c #9898aa",
"`n c #e1e1e4",
"`o c #e0e0e3",
"`p c #adadba",
"`q c #9494a7",
"`r c #9595a8",
"`s c #cfcfe0",
"`t c #d4d4e5",
"`u c #c7c7d8",
"`v c #babacb",
"`w c #b9b9ca",
"`x c #9c9cad",
"`y c #9898a9",
"`z c #b6b6c6",
"`A c #c1c1d2",
"`B c #b3b3c4",
"`C c #c5c5d6",
"`D c #cacadb",
"`E c #b5b5c6",
"`F c #c9c9da",
"`G c #aaaabb",
"`H c #aaaab7",
"`I c #a6a6b2",
"`J c #aaaabc",
"`K c #c0c0d1",
"`L c #a9a9ba",
"`M c #adadbe",
"`N c #bcbccd",
"`O c #bfbfd0",
"`P c #b6b6c7",
"`Q c #bebecf",
"`R c #a8a8b9",
"`S c #8b8b9d",
"`T c #838395",
"`U c #9f9fb0",
"`V c #9e9eaf",
"`W c #9696a7",
"`X c #9898a6",
"`Y c #b4b4bd",
"`Z c #6d6d80",
"`0 c #6f6f82",
"`1 c #8e8e9c",
"`2 c #cddfee",
"`3 c #8cc1eb",
"`4 c #b3d1e9",
"`5 c #7dbae7",
"`6 c #88c5ed",
"`7 c #70acdc",
"`8 c #aae7fc",
".` c #75b3df",
".. c #accae2",
".# c #68a5d5",
".a c #000000",
".b c #000000",
".c c #000000",
".d c #000000",
".e c #000000",
".f c #000000",
".g c #000000",
".h c #000000",
".i c #000000",
".j c #000000",
".k c #000000",
".l c #000000",
".m c #000000",
".n c #000000",
".o c #000000",
".p c #000000",
".q c #000000",
".r c #000000",
".s c #000000",
".t c #000000",
".u c #000000",
".v c #000000",
".w c #000000",
".x c #000000",
".y c #000000",
".z c #000000",
".A c #000000",
".B c #000000",
".C c #000000",
".D c #000000",
".E c #000000",
".F c #000000",
".G c #000000",
".H c #000000",
".I c #000000",
".J c #000000",
".K c #000000",
".L c #000000",
".M c #000000",
".N c #000000",
".O c #000000",
".P c #000000",
".Q c #000000",
".R c #000000",
".S c #000000",
".T c #000000",
".U c #000000",
".V c #000000",
".W c #000000",
".X c #000000",
".Y c #000000",
".Z c #000000",
".0 c #000000",
".1 c #000000",
".2 c #000000",
".3 c #000000",
".4 c #000000",
".5 c #000000",
".6 c #000000",
".7 c #000000",
".8 c #000000",
"#` c #000000",
"#. c #000000",
"## c #000000",
"#a c #000000",
"#b c #000000",
"#c c #000000",
"#d c #000000",
"#e c #000000",
"#f c #000000",
"#g c #000000",
"#h c #000000",
"#i c #000000",
"#j c #000000",
"#k c #000000",
"#l c #000000",
"#m c #000000",
"#n c #000000",
"#o c #000000",
"#p c #000000",
"#q c #000000",
"#r c #000000",
"#s c #000000",
"#t c #000000",
"#u c #000000",
"#v c #000000",
"#w c #000000",
"#x c #000000",
"#y c #000000",
"#z c #000000",
"#A c #000000",
"#B c #000000",
"#C c #000000",
"#D c #000000",
"#E c #000000",
"#F c #000000",
"#G c #000000",
"#H c #000000",
"#I c #000000",
"#J c #000000",
"#K c #000000",
"#L c #000000",
"#M c #000000",
"#N c #000000",
"#O c #000000",
"#P c #000000",
"#Q c #000000",
"#R c #000000",
"#S c #000000",
"#T c #000000",
"#U c #000000",
"#V c #000000",
"#W c #000000",
"#X c #000000",
"#Y c #000000",
"#Z c #000000",
"#0 c #000000",
"#1 c #000000",
"#2 c #000000",
"#3 c #000000",
"#4 c #000000",
"#5 c #000000",
"#6 c #000000",
"#7 c #000000",
"#8 c #000000",
"a` c #000000",
"a. c #000000",
"a# c #000000",
"aa c #000000",
"ab c #000000",
"ac c #000000",
"ad c #000000",
"ae c #000000",
"af c #000000",
"ag c #000000",
"ah c #000000",
"ai c #000000",
"aj c #000000",
"ak c #000000",
"al c #000000",
"am c #000000",
"an c #000000",
"ao c #000000",
"ap c #000000",
"aq c #000000",
"ar c #000000",
"as c #000000",
"at c #000000",
"au c #000000",
"av c #000000",
"aw c #000000",
"ax c #000000",
"ay c #000000",
"az c #000000",
"aA c #000000",
"aB c #000000",
"aC c #000000",
"aD c #000000",
"aE c #000000",
"aF c #000000",
"aG c #000000",
"aH c #000000",
"aI c #000000",
"aJ c #000000",
"aK c #000000",
"aL c #000000",
"aM c #000000",
"aN c #000000",
"aO c #000000",
"aP c #000000",
"aQ c #000000",
"aR c #000000",
"aS c #000000",
"aT c #000000",
"aU c #000000",
"aV c #000000",
"aW c #000000",
"aX c #000000",
"aY c #000000",
"aZ c #000000",
"a0 c #000000",
"a1 c #000000",
"a2 c #000000",
"a3 c #000000",
"a4 c #000000",
"a5 c #000000",
"a6 c #000000",
"a7 c #000000",
"a8 c #000000",
"````````````````````````````````",
"```````````.`#`a`a`#`.``````````",
"`````````.`b`c`d`e`f`g`.````````",
"`````````h`i`j`j`j`c`k`l`m`h`n``",
"```o`p`q`r`s`t`t`t`u`v`s`s`w`x`o",
"`o`y`z`A`B`C`D`D`D`v`E`F`D`F`G`H",
"`I`J`K`v`L`M`N`O`P`G`L`E`Q`E`R`S",
"`T`x`U`U`U`U`U`U`U`U`U`U`U`V`W`X",
"`Y`Z`Z`Z`Z`Z`Z`Z`Z`Z`Z`Z`Z`0`1`o",
"````````````````````````````````",
"`````2`3`````2`3`````2`3````````",
"```4`5`6```4`5`6```4`5`6````````",
"```7`8.````7`8.````7`8.`````````",
"``...#..``...#..``...#..````````",
"````````````````````````````````",
"````````````````````````````````"
};
