/* XPM */
static const char *EXPAND_XPM[] = {
"16 16 256 2",
"`` c None",
"`. c #62ade9",
"`# c #ccdfee",
"`a c #85beeb",
"`b c #60ace8",
"`c c #99e5ff",
"`d c #85d2f7",
"`e c #6ab6eb",
"`f c #5ca8e4",
"`g c #7fcff6",
"`h c #90e2ff",
"`i c #539cd1",
"`j c #8fc0e7",
"`k c #54a0dc",
"`l c #519cd1",
"`m c #86dfff",
"`n c #61afe4",
"`o c #9dc5e6",
"`p c #94e3ff",
"`q c #4d99d5",
"`r c #55a5de",
"`s c #86b7df",
"`t c #88e0ff",
"`u c #61abe2",
"`v c #9bc2e3",
"`w c #85dfff",
"`x c #c6d9e8",
"`y c #94bdde",
"`z c #55a3d9",
"`A c #8fe2ff",
"`B c #5298d4",
"`C c #8be1ff",
"`D c #54a2d9",
"`E c #91bbdc",
"`F c #4490cc",
"`G c #c7d9e8",
"`H c #92b6d7",
"`I c #4588c4",
"`J c #c5d5e4",
"`K c #c4d4e3",
"`L c #8fb3d4",
"`M c #4693cc",
"`N c #64d3ff",
"`O c #4184c0",
"`P c #59d0ff",
"`Q c #4392cc",
"`R c #3d7db9",
"`S c #3689c8",
"`T c #7ba4cb",
"`U c #3ec7ff",
"`V c #418dc7",
"`W c #8eb1d2",
"`X c #3e8cc7",
"`Y c #36c4ff",
"`Z c #3978b4",
"`0 c #4fcdff",
"`1 c #318ac8",
"`2 c #19baff",
"`3 c #3183c3",
"`4 c #8caecf",
"`5 c #2ec1ff",
"`6 c #3674b0",
"`7 c #16a1e7",
"`8 c #0fb7ff",
".` c #2f89c8",
".. c #769ec5",
".# c #3470ac",
".a c #2fc2ff",
".b c #0f9ee6",
".c c #29c0ff",
".d c #277dbc",
".e c #c0cfde",
".f c #15b9ff",
".g c #14b9ff",
".h c #608dba",
".i c #306ca8",
".j c #000000",
".k c #000000",
".l c #000000",
".m c #000000",
".n c #000000",
".o c #000000",
".p c #000000",
".q c #000000",
".r c #000000",
".s c #000000",
".t c #000000",
".u c #000000",
".v c #000000",
".w c #000000",
".x c #000000",
".y c #000000",
".z c #000000",
".A c #000000",
".B c #000000",
".C c #000000",
".D c #000000",
".E c #000000",
".F c #000000",
".G c #000000",
".H c #000000",
".I c #000000",
".J c #000000",
".K c #000000",
".L c #000000",
".M c #000000",
".N c #000000",
".O c #000000",
".P c #000000",
".Q c #000000",
".R c #000000",
".S c #000000",
".T c #000000",
".U c #000000",
".V c #000000",
".W c #000000",
".X c #000000",
".Y c #000000",
".Z c #000000",
".0 c #000000",
".1 c #000000",
".2 c #000000",
".3 c #000000",
".4 c #000000",
".5 c #000000",
".6 c #000000",
".7 c #000000",
".8 c #000000",
"#` c #000000",
"#. c #000000",
"## c #000000",
"#a c #000000",
"#b c #000000",
"#c c #000000",
"#d c #000000",
"#e c #000000",
"#f c #000000",
"#g c #000000",
"#h c #000000",
"#i c #000000",
"#j c #000000",
"#k c #000000",
"#l c #000000",
"#m c #000000",
"#n c #000000",
"#o c #000000",
"#p c #000000",
"#q c #000000",
"#r c #000000",
"#s c #000000",
"#t c #000000",
"#u c #000000",
"#v c #000000",
"#w c #000000",
"#x c #000000",
"#y c #000000",
"#z c #000000",
"#A c #000000",
"#B c #000000",
"#C c #000000",
"#D c #000000",
"#E c #000000",
"#F c #000000",
"#G c #000000",
"#H c #000000",
"#I c #000000",
"#J c #000000",
"#K c #000000",
"#L c #000000",
"#M c #000000",
"#N c #000000",
"#O c #000000",
"#P c #000000",
"#Q c #000000",
"#R c #000000",
"#S c #000000",
"#T c #000000",
"#U c #000000",
"#V c #000000",
"#W c #000000",
"#X c #000000",
"#Y c #000000",
"#Z c #000000",
"#0 c #000000",
"#1 c #000000",
"#2 c #000000",
"#3 c #000000",
"#4 c #000000",
"#5 c #000000",
"#6 c #000000",
"#7 c #000000",
"#8 c #000000",
"a` c #000000",
"a. c #000000",
"a# c #000000",
"aa c #000000",
"ab c #000000",
"ac c #000000",
"ad c #000000",
"ae c #000000",
"af c #000000",
"ag c #000000",
"ah c #000000",
"ai c #000000",
"aj c #000000",
"ak c #000000",
"al c #000000",
"am c #000000",
"an c #000000",
"ao c #000000",
"ap c #000000",
"aq c #000000",
"ar c #000000",
"as c #000000",
"at c #000000",
"au c #000000",
"av c #000000",
"aw c #000000",
"ax c #000000",
"ay c #000000",
"az c #000000",
"aA c #000000",
"aB c #000000",
"aC c #000000",
"aD c #000000",
"aE c #000000",
"aF c #000000",
"aG c #000000",
"aH c #000000",
"aI c #000000",
"aJ c #000000",
"aK c #000000",
"aL c #000000",
"aM c #000000",
"aN c #000000",
"aO c #000000",
"aP c #000000",
"aQ c #000000",
"aR c #000000",
"aS c #000000",
"aT c #000000",
"aU c #000000",
"aV c #000000",
"aW c #000000",
"aX c #000000",
"aY c #000000",
"aZ c #000000",
"a0 c #000000",
"a1 c #000000",
"a2 c #000000",
"a3 c #000000",
"a4 c #000000",
"a5 c #000000",
"a6 c #000000",
"a7 c #000000",
"a8 c #000000",
"`a`.`.`.`.`#```````#`.`.`.`.`a``",
"`b`c`d`c`e`#```````#`e`c`d`c`b``",
"`f`g`h`i`j```````````j`i`h`g`f``",
"`k`c`l`m`n`o```````o`n`m`l`p`k``",
"`q`r`s`r`t`u`v```v`u`w`r`s`r`q``",
"`x`x```y`z`A`B```B`C`D`y```x`x``",
"`````````E`F`G```G`F`E``````````",
"````````````````````````````````",
"`````````H`I`J```J`I`H``````````",
"`K`K```L`M`N`O```O`P`Q`L```K`K``",
"`R`S`T`S`U`V`W```W`X`Y`S`T`S`R``",
"`Z`0`1`2`3`4```````4`3`2`1`5`Z``",
"`6`7`8.`..``````````...``8`7`6``",
".#.a.b.c.d.e``````.e.d.f.b.g.#``",
".h.i.i.i.i.e``````.e.i.i.i.i.h``",
"````````````````````````````````"
};
