/* XPM */
static const char *INTERPOLATE_XPM[] = {
"16 16 256 2",
"`` c None",
"`. c #a6a6a6",
"`# c #363636",
"`a c #262626",
"`b c #464646",
"`c c #595959",
"`d c #6b6b6b",
"`e c #7d7d7d",
"`f c #8f8f8f",
"`g c #9f9f9f",
"`h c #aeaeae",
"`i c #bababa",
"`j c #c8c8c8",
"`k c #e1e1e1",
"`l c #2c2c2c",
"`m c #333333",
"`n c #444444",
"`o c #555555",
"`p c #696969",
"`q c #7f7f7f",
"`r c #959595",
"`s c #acacac",
"`t c #c1c1c1",
"`u c #d5d5d5",
"`v c #e6e6e6",
"`w c #f5f5f5",
"`x c #ebebeb",
"`y c #c7c7c7",
"`z c #0f0f0f",
"`A c #353535",
"`B c #474747",
"`C c #5d5d5d",
"`D c #747474",
"`E c #8c8c8c",
"`F c #a5a5a5",
"`G c #bcbcbc",
"`H c #d1d1d1",
"`I c #e4e4e4",
"`J c #f4f4f4",
"`K c #fefefe",
"`L c #bfbfbf",
"`M c #bdbdbd",
"`N c #b7b7b7",
"`O c #b5b5b5",
"`P c #0e0e0e",
"`Q c #b1b1b1",
"`R c #0d0d0d",
"`S c #ababab",
"`T c #a7a7a7",
"`U c #a1a1a1",
"`V c #2a2a2a",
"`W c #323232",
"`X c #dddddd",
"`Y c #a0a0a0",
"`Z c #2e2e2e",
"`0 c #1b1b1b",
"`1 c #252525",
"`2 c #303030",
"`3 c #3e3e3e",
"`4 c #494949",
"`5 c #575757",
"`6 c #626262",
"`7 c #6e6e6e",
"`8 c #787878",
".` c #808080",
".. c #939393",
".# c #cdcdcd",
".a c #000000",
".b c #000000",
".c c #000000",
".d c #000000",
".e c #000000",
".f c #000000",
".g c #000000",
".h c #000000",
".i c #000000",
".j c #000000",
".k c #000000",
".l c #000000",
".m c #000000",
".n c #000000",
".o c #000000",
".p c #000000",
".q c #000000",
".r c #000000",
".s c #000000",
".t c #000000",
".u c #000000",
".v c #000000",
".w c #000000",
".x c #000000",
".y c #000000",
".z c #000000",
".A c #000000",
".B c #000000",
".C c #000000",
".D c #000000",
".E c #000000",
".F c #000000",
".G c #000000",
".H c #000000",
".I c #000000",
".J c #000000",
".K c #000000",
".L c #000000",
".M c #000000",
".N c #000000",
".O c #000000",
".P c #000000",
".Q c #000000",
".R c #000000",
".S c #000000",
".T c #000000",
".U c #000000",
".V c #000000",
".W c #000000",
".X c #000000",
".Y c #000000",
".Z c #000000",
".0 c #000000",
".1 c #000000",
".2 c #000000",
".3 c #000000",
".4 c #000000",
".5 c #000000",
".6 c #000000",
".7 c #000000",
".8 c #000000",
"#` c #000000",
"#. c #000000",
"## c #000000",
"#a c #000000",
"#b c #000000",
"#c c #000000",
"#d c #000000",
"#e c #000000",
"#f c #000000",
"#g c #000000",
"#h c #000000",
"#i c #000000",
"#j c #000000",
"#k c #000000",
"#l c #000000",
"#m c #000000",
"#n c #000000",
"#o c #000000",
"#p c #000000",
"#q c #000000",
"#r c #000000",
"#s c #000000",
"#t c #000000",
"#u c #000000",
"#v c #000000",
"#w c #000000",
"#x c #000000",
"#y c #000000",
"#z c #000000",
"#A c #000000",
"#B c #000000",
"#C c #000000",
"#D c #000000",
"#E c #000000",
"#F c #000000",
"#G c #000000",
"#H c #000000",
"#I c #000000",
"#J c #000000",
"#K c #000000",
"#L c #000000",
"#M c #000000",
"#N c #000000",
"#O c #000000",
"#P c #000000",
"#Q c #000000",
"#R c #000000",
"#S c #000000",
"#T c #000000",
"#U c #000000",
"#V c #000000",
"#W c #000000",
"#X c #000000",
"#Y c #000000",
"#Z c #000000",
"#0 c #000000",
"#1 c #000000",
"#2 c #000000",
"#3 c #000000",
"#4 c #000000",
"#5 c #000000",
"#6 c #000000",
"#7 c #000000",
"#8 c #000000",
"a` c #000000",
"a. c #000000",
"a# c #000000",
"aa c #000000",
"ab c #000000",
"ac c #000000",
"ad c #000000",
"ae c #000000",
"af c #000000",
"ag c #000000",
"ah c #000000",
"ai c #000000",
"aj c #000000",
"ak c #000000",
"al c #000000",
"am c #000000",
"an c #000000",
"ao c #000000",
"ap c #000000",
"aq c #000000",
"ar c #000000",
"as c #000000",
"at c #000000",
"au c #000000",
"av c #000000",
"aw c #000000",
"ax c #000000",
"ay c #000000",
"az c #000000",
"aA c #000000",
"aB c #000000",
"aC c #000000",
"aD c #000000",
"aE c #000000",
"aF c #000000",
"aG c #000000",
"aH c #000000",
"aI c #000000",
"aJ c #000000",
"aK c #000000",
"aL c #000000",
"aM c #000000",
"aN c #000000",
"aO c #000000",
"aP c #000000",
"aQ c #000000",
"aR c #000000",
"aS c #000000",
"aT c #000000",
"aU c #000000",
"aV c #000000",
"aW c #000000",
"aX c #000000",
"aY c #000000",
"aZ c #000000",
"a0 c #000000",
"a1 c #000000",
"a2 c #000000",
"a3 c #000000",
"a4 c #000000",
"a5 c #000000",
"a6 c #000000",
"a7 c #000000",
"a8 c #000000",
"````````````````````````````````",
"```.`#`a`#`b`c`d`e`f`g`h`i`j`k``",
"```l`m`n`o`p`q`r`s`t`u`v`w`x`y``",
"```z`A`m`B`C`D`E`F`G`H`I`J`K`L``",
"```z`m`m`B`C`D`E`F`G`H`I`J`K`M``",
"```z`m`m`B`C`D`E`F`G`H`I`J`K`i``",
"```z`m`m`B`C`D`E`F`G`H`I`J`K`N``",
"```z`m`m`B`C`D`E`F`G`H`I`J`K`O``",
"```P`m`m`B`C`D`E`F`G`H`I`J`K`Q``",
"```P`m`m`B`C`D`E`F`G`H`I`J`K`h``",
"```R`m`m`B`C`D`E`F`G`H`I`J`K`S``",
"```R`m`m`B`C`D`E`F`G`H`I`J`K`T``",
"```R`A`m`B`C`D`E`F`G`H`I`J`K`U``",
"```V`W`n`o`p`q`r`s`t`u`v`w`X`Y``",
"```F`Z`0`1`2`3`4`5`6`7`8.`...#``",
"````````````````````````````````"
};
