/* XPM */
static const char *NORMALS_XPM[] = {
"16 16 256 2",
"`` c None",
"`. c #dcb68f",
"`# c #d9ae82",
"`a c #ede8e3",
"`b c #d5a16e",
"`c c #e2b27c",
"`d c #d9ad81",
"`e c #be9061",
"`f c #e3b885",
"`g c #e1b07b",
"`h c #d7ab80",
"`i c #ece7e2",
"`j c #d19d69",
"`k c #f9d29f",
"`l c #f6cd9a",
"`m c #e0af79",
"`n c #d5aa7e",
"`o c #bb8c5f",
"`p c #dfb17e",
"`q c #f2c693",
"`r c #f4cb98",
"`s c #deac77",
"`t c #d4a87c",
"`u c #cd9964",
"`v c #f6cc99",
"`w c #f0c390",
"`x c #e9ba86",
"`y c #f3c895",
"`z c #dcaa74",
"`A c #d2a679",
"`B c #b6875c",
"`C c #ddae7b",
"`D c #eec08d",
"`E c #ce9964",
"`F c #e7b783",
"`G c #f1c592",
"`H c #daa771",
"`I c #d0a477",
"`J c #ece6e1",
"`K c #c9945f",
"`L c #ebbd8a",
"`M c #cb9762",
"`N c #e4b580",
"`O c #eec28f",
"`P c #d8a570",
"`Q c #cea275",
"`R c #ebe6e1",
"`S c #b08259",
"`T c #d9a976",
"`U c #e9b986",
"`V c #c5915c",
"`W c #ddc5ad",
"`X c #c8935e",
"`Y c #e2b17d",
"`Z c #ecbe8b",
"`0 c #d5a26c",
"`1 c #cc9f72",
"`2 c #c28e59",
"`3 c #edbf8c",
"`4 c #e6b683",
"`5 c #dbc3ac",
"`6 c #c5905c",
"`7 c #deae7a",
"`8 c #e9bb88",
".` c #d39f69",
".. c #c99c6f",
".# c #ebe5e0",
".a c #aa7b55",
".b c #d7a572",
".c c #e4b380",
".d c #c08b56",
".e c #dac3aa",
".f c #ddab77",
".g c #e8b885",
".h c #d09c66",
".i c #c79a6c",
".j c #eae5e0",
".k c #bc8752",
".l c #eab986",
".m c #e2b07d",
".n c #bf8a55",
".o c #dba874",
".p c #e6b582",
".q c #ce9963",
".r c #c49769",
".s c #a1724f",
".t c #d4a26f",
".u c #e0ae7b",
".v c #e8b683",
".w c #e4b27f",
".x c #ca9660",
".y c #bf9164",
".z c #e9e4df",
".A c #a9743f",
".B c #ebb986",
".C c #cd9a67",
".D c #e6b481",
".E c #d19f6c",
".F c #c28e5a",
".G c #b3875a",
".H c #b28b63",
".I c #9d6834",
".J c #946545",
".K c #000000",
".L c #000000",
".M c #000000",
".N c #000000",
".O c #000000",
".P c #000000",
".Q c #000000",
".R c #000000",
".S c #000000",
".T c #000000",
".U c #000000",
".V c #000000",
".W c #000000",
".X c #000000",
".Y c #000000",
".Z c #000000",
".0 c #000000",
".1 c #000000",
".2 c #000000",
".3 c #000000",
".4 c #000000",
".5 c #000000",
".6 c #000000",
".7 c #000000",
".8 c #000000",
"#` c #000000",
"#. c #000000",
"## c #000000",
"#a c #000000",
"#b c #000000",
"#c c #000000",
"#d c #000000",
"#e c #000000",
"#f c #000000",
"#g c #000000",
"#h c #000000",
"#i c #000000",
"#j c #000000",
"#k c #000000",
"#l c #000000",
"#m c #000000",
"#n c #000000",
"#o c #000000",
"#p c #000000",
"#q c #000000",
"#r c #000000",
"#s c #000000",
"#t c #000000",
"#u c #000000",
"#v c #000000",
"#w c #000000",
"#x c #000000",
"#y c #000000",
"#z c #000000",
"#A c #000000",
"#B c #000000",
"#C c #000000",
"#D c #000000",
"#E c #000000",
"#F c #000000",
"#G c #000000",
"#H c #000000",
"#I c #000000",
"#J c #000000",
"#K c #000000",
"#L c #000000",
"#M c #000000",
"#N c #000000",
"#O c #000000",
"#P c #000000",
"#Q c #000000",
"#R c #000000",
"#S c #000000",
"#T c #000000",
"#U c #000000",
"#V c #000000",
"#W c #000000",
"#X c #000000",
"#Y c #000000",
"#Z c #000000",
"#0 c #000000",
"#1 c #000000",
"#2 c #000000",
"#3 c #000000",
"#4 c #000000",
"#5 c #000000",
"#6 c #000000",
"#7 c #000000",
"#8 c #000000",
"a` c #000000",
"a. c #000000",
"a# c #000000",
"aa c #000000",
"ab c #000000",
"ac c #000000",
"ad c #000000",
"ae c #000000",
"af c #000000",
"ag c #000000",
"ah c #000000",
"ai c #000000",
"aj c #000000",
"ak c #000000",
"al c #000000",
"am c #000000",
"an c #000000",
"ao c #000000",
"ap c #000000",
"aq c #000000",
"ar c #000000",
"as c #000000",
"at c #000000",
"au c #000000",
"av c #000000",
"aw c #000000",
"ax c #000000",
"ay c #000000",
"az c #000000",
"aA c #000000",
"aB c #000000",
"aC c #000000",
"aD c #000000",
"aE c #000000",
"aF c #000000",
"aG c #000000",
"aH c #000000",
"aI c #000000",
"aJ c #000000",
"aK c #000000",
"aL c #000000",
"aM c #000000",
"aN c #000000",
"aO c #000000",
"aP c #000000",
"aQ c #000000",
"aR c #000000",
"aS c #000000",
"aT c #000000",
"aU c #000000",
"aV c #000000",
"aW c #000000",
"aX c #000000",
"aY c #000000",
"aZ c #000000",
"a0 c #000000",
"a1 c #000000",
"a2 c #000000",
"a3 c #000000",
"a4 c #000000",
"a5 c #000000",
"a6 c #000000",
"a7 c #000000",
"a8 c #000000",
"```.`#`a````````````````````````",
"```b`c`d`a``````````````````````",
"```e`f`g`h`i````````````````````",
"```j`k`l`m`n`i``````````````````",
"```o`p`q`r`s`t`i````````````````",
"```u`v`w`x`y`z`A`i``````````````",
"```B`C`D`E`F`G`H`I`J````````````",
"```K`q`L`K`M`N`O`P`Q`R``````````",
"```S`T`U`V`W`X`Y`Z`0`1`R````````",
"```2`3`4`2```5`6`7`8.`...#``````",
"``.a.b.c.d````.e`2.f.g.h.i.j````",
"``.k.l.m.k.k.k.k.k.n.o.p.q.r.j``",
"``.s.t.u.v.v.v.v.v.v.v.u.w.x.y.z",
"``.A.B.C.D.C.D.C.D.C.D.C.D.E.F.G",
"``.H.I.J.I.J.I.J.I.J.I.J.I.J.I.H",
"````````````````````````````````"
};
