/* XPM */
static const char *OPEN_XPM[] = {
"16 16 256 2",
"`` c None",
"`. c #e2c894",
"`# c #ddbb76",
"`a c #dcba74",
"`b c #f4dc88",
"`c c #e9c060",
"`d c #eabf5f",
"`e c #f4d380",
"`f c #fde39c",
"`g c #ffe6a2",
"`h c #ffeaa6",
"`i c #dbb872",
"`j c #fff1ac",
"`k c #feefab",
"`l c #f8e295",
"`m c #edc96e",
"`n c #d9a848",
"`o c #fedc98",
"`p c #ffe5a1",
"`q c #d9b670",
"`r c #fdeea9",
"`s c #fce9a4",
"`t c #fdeeaa",
"`u c #d1a142",
"`v c #fddb97",
"`w c #fee39f",
"`x c #d7b46e",
"`y c #fceba6",
"`z c #fbe6a1",
"`A c #cf9d3c",
"`B c #fcda96",
"`C c #fde29e",
"`D c #d4b16b",
"`E c #fbe8a3",
"`F c #f9e39d",
"`G c #c59435",
"`H c #fad894",
"`I c #fcdf9b",
"`J c #d2af68",
"`K c #f9e59e",
"`L c #f6df98",
"`M c #c09032",
"`N c #f8d692",
"`O c #fadd99",
"`P c #e5d9c0",
"`Q c #cfac64",
"`R c #f7e19b",
"`S c #f4db94",
"`T c #bc8d30",
"`U c #f6d490",
"`V c #f9db97",
"`W c #fdfefe",
"`X c #cca861",
"`Y c #f6de97",
"`Z c #f2d890",
"`0 c #b7892d",
"`1 c #f5d38f",
"`2 c #f8d995",
"`3 c #eef5f5",
"`4 c #c9a55e",
"`5 c #f4da92",
"`6 c #f0d48b",
"`7 c #b3852b",
"`8 c #f3d18d",
".` c #f6d793",
".. c #ddebeb",
".# c #c5a25b",
".a c #f2d68e",
".b c #edd087",
".c c #af8228",
".d c #f1cf8b",
".e c #f5d591",
".f c #41c9fe",
".g c #c19d55",
".h c #f0d38a",
".i c #ebcd82",
".j c #ab7e26",
".k c #f0ce8a",
".l c #f4d38f",
".m c #2eb6f4",
".n c #b38f48",
".o c #efd187",
".p c #e9ca7f",
".q c #efd087",
".r c #a97d26",
".s c #f5d490",
".t c #dbceb5",
".u c #b89e6a",
".v c #bf963f",
".w c #ddb96b",
".x c #eccb81",
".y c #eece84",
".z c #91650f",
".A c #a5823d",
".B c #d4c4a4",
".C c #ba9c60",
".D c #ba9750",
".E c #d1ae65",
".F c #a27f3a",
".G c #ddd4c2",
".H c #bfa87b",
".I c #b39966",
".J c #000000",
".K c #000000",
".L c #000000",
".M c #000000",
".N c #000000",
".O c #000000",
".P c #000000",
".Q c #000000",
".R c #000000",
".S c #000000",
".T c #000000",
".U c #000000",
".V c #000000",
".W c #000000",
".X c #000000",
".Y c #000000",
".Z c #000000",
".0 c #000000",
".1 c #000000",
".2 c #000000",
".3 c #000000",
".4 c #000000",
".5 c #000000",
".6 c #000000",
".7 c #000000",
".8 c #000000",
"#` c #000000",
"#. c #000000",
"## c #000000",
"#a c #000000",
"#b c #000000",
"#c c #000000",
"#d c #000000",
"#e c #000000",
"#f c #000000",
"#g c #000000",
"#h c #000000",
"#i c #000000",
"#j c #000000",
"#k c #000000",
"#l c #000000",
"#m c #000000",
"#n c #000000",
"#o c #000000",
"#p c #000000",
"#q c #000000",
"#r c #000000",
"#s c #000000",
"#t c #000000",
"#u c #000000",
"#v c #000000",
"#w c #000000",
"#x c #000000",
"#y c #000000",
"#z c #000000",
"#A c #000000",
"#B c #000000",
"#C c #000000",
"#D c #000000",
"#E c #000000",
"#F c #000000",
"#G c #000000",
"#H c #000000",
"#I c #000000",
"#J c #000000",
"#K c #000000",
"#L c #000000",
"#M c #000000",
"#N c #000000",
"#O c #000000",
"#P c #000000",
"#Q c #000000",
"#R c #000000",
"#S c #000000",
"#T c #000000",
"#U c #000000",
"#V c #000000",
"#W c #000000",
"#X c #000000",
"#Y c #000000",
"#Z c #000000",
"#0 c #000000",
"#1 c #000000",
"#2 c #000000",
"#3 c #000000",
"#4 c #000000",
"#5 c #000000",
"#6 c #000000",
"#7 c #000000",
"#8 c #000000",
"a` c #000000",
"a. c #000000",
"a# c #000000",
"aa c #000000",
"ab c #000000",
"ac c #000000",
"ad c #000000",
"ae c #000000",
"af c #000000",
"ag c #000000",
"ah c #000000",
"ai c #000000",
"aj c #000000",
"ak c #000000",
"al c #000000",
"am c #000000",
"an c #000000",
"ao c #000000",
"ap c #000000",
"aq c #000000",
"ar c #000000",
"as c #000000",
"at c #000000",
"au c #000000",
"av c #000000",
"aw c #000000",
"ax c #000000",
"ay c #000000",
"az c #000000",
"aA c #000000",
"aB c #000000",
"aC c #000000",
"aD c #000000",
"aE c #000000",
"aF c #000000",
"aG c #000000",
"aH c #000000",
"aI c #000000",
"aJ c #000000",
"aK c #000000",
"aL c #000000",
"aM c #000000",
"aN c #000000",
"aO c #000000",
"aP c #000000",
"aQ c #000000",
"aR c #000000",
"aS c #000000",
"aT c #000000",
"aU c #000000",
"aV c #000000",
"aW c #000000",
"aX c #000000",
"aY c #000000",
"aZ c #000000",
"a0 c #000000",
"a1 c #000000",
"a2 c #000000",
"a3 c #000000",
"a4 c #000000",
"a5 c #000000",
"a6 c #000000",
"a7 c #000000",
"a8 c #000000",
"`````.`#`#`#`#`#`#`#`#`#`#`.````",
"`````a`b`c`d`e`f`g`g`g`g`h`a````",
"`````i`j`k`l`m`n`o`o`o`o`p`i````",
"`````q`r`s`s`t`u`v`v`v`v`w`q````",
"`````x`y`z`z`y`A`B`B`B`B`C`x````",
"`````D`E`F`F`E`G`H`H`H`H`I`D````",
"`````J`K`L`L`K`M`N`N`N`N`O`J`P``",
"`````Q`R`S`S`R`T`U`U`U`U`V`W`Q``",
"`````X`Y`Z`Z`Y`0`1`1`1`1`2`3`X``",
"`````4`5`6`6`5`7`8`8`8`8.`..`4``",
"````.#.a.b.b.a.c.d.d.d.d.e.f.#``",
"````.g.h.i.i.h.j.k.k.k.k.l.m.g``",
"````.n.o.p.p.q.r`8`8`8`8.s.n.t``",
"````.u.v.w.x.y.z.A.A.A.A.A.u````",
"``````.B.C.D.E.F````````````````",
"``````````.G.H.I````````````````"
};
