/* XPM */
static const char *RENDER_3D_XPM[] = {
"16 16 256 2",
"`` c None",
"`. c #dfdfdf",
"`# c #7e7e7e",
"`a c #7a7a7a",
"`b c #adadad",
"`c c #cecece",
"`d c #9c9c9c",
"`e c #dedede",
"`f c #757575",
"`g c #a9a9a9",
"`h c #707070",
"`i c #5e5e5e",
"`j c #a6a6a6",
"`k c #595959",
"`l c #5f92e4",
"`m c #689bec",
"`n c #6b9ff0",
"`o c #6fa3f5",
"`p c #6c8fca",
"`q c #c77d6d",
"`r c #f08a75",
"`s c #eb8570",
"`t c #e7816c",
"`u c #de7863",
"`v c #515151",
"`w c #567ab4",
"`x c #668bc6",
"`y c #b8b8b8",
"`z c #f0f0f0",
"`A c #c37969",
"`B c #b16859",
"`C c #3e3e3e",
"`D c #a0a0a0",
"`E c #d5d5d5",
"`F c #d7d7d7",
"`G c #d4d4d4",
"`H c #e6e6e6",
"`I c #dadada",
"`J c #d9d9d9",
"`K c #dddddd",
"`L c #e0e0e0",
"`M c #e2e2e2",
"`N c #e3e3e3",
"`O c #e1e1e1",
"`P c #dcdcdc",
"`Q c #000000",
"`R c #000000",
"`S c #000000",
"`T c #000000",
"`U c #000000",
"`V c #000000",
"`W c #000000",
"`X c #000000",
"`Y c #000000",
"`Z c #000000",
"`0 c #000000",
"`1 c #000000",
"`2 c #000000",
"`3 c #000000",
"`4 c #000000",
"`5 c #000000",
"`6 c #000000",
"`7 c #000000",
"`8 c #000000",
".` c #000000",
".. c #000000",
".# c #000000",
".a c #000000",
".b c #000000",
".c c #000000",
".d c #000000",
".e c #000000",
".f c #000000",
".g c #000000",
".h c #000000",
".i c #000000",
".j c #000000",
".k c #000000",
".l c #000000",
".m c #000000",
".n c #000000",
".o c #000000",
".p c #000000",
".q c #000000",
".r c #000000",
".s c #000000",
".t c #000000",
".u c #000000",
".v c #000000",
".w c #000000",
".x c #000000",
".y c #000000",
".z c #000000",
".A c #000000",
".B c #000000",
".C c #000000",
".D c #000000",
".E c #000000",
".F c #000000",
".G c #000000",
".H c #000000",
".I c #000000",
".J c #000000",
".K c #000000",
".L c #000000",
".M c #000000",
".N c #000000",
".O c #000000",
".P c #000000",
".Q c #000000",
".R c #000000",
".S c #000000",
".T c #000000",
".U c #000000",
".V c #000000",
".W c #000000",
".X c #000000",
".Y c #000000",
".Z c #000000",
".0 c #000000",
".1 c #000000",
".2 c #000000",
".3 c #000000",
".4 c #000000",
".5 c #000000",
".6 c #000000",
".7 c #000000",
".8 c #000000",
"#` c #000000",
"#. c #000000",
"## c #000000",
"#a c #000000",
"#b c #000000",
"#c c #000000",
"#d c #000000",
"#e c #000000",
"#f c #000000",
"#g c #000000",
"#h c #000000",
"#i c #000000",
"#j c #000000",
"#k c #000000",
"#l c #000000",
"#m c #000000",
"#n c #000000",
"#o c #000000",
"#p c #000000",
"#q c #000000",
"#r c #000000",
"#s c #000000",
"#t c #000000",
"#u c #000000",
"#v c #000000",
"#w c #000000",
"#x c #000000",
"#y c #000000",
"#z c #000000",
"#A c #000000",
"#B c #000000",
"#C c #000000",
"#D c #000000",
"#E c #000000",
"#F c #000000",
"#G c #000000",
"#H c #000000",
"#I c #000000",
"#J c #000000",
"#K c #000000",
"#L c #000000",
"#M c #000000",
"#N c #000000",
"#O c #000000",
"#P c #000000",
"#Q c #000000",
"#R c #000000",
"#S c #000000",
"#T c #000000",
"#U c #000000",
"#V c #000000",
"#W c #000000",
"#X c #000000",
"#Y c #000000",
"#Z c #000000",
"#0 c #000000",
"#1 c #000000",
"#2 c #000000",
"#3 c #000000",
"#4 c #000000",
"#5 c #000000",
"#6 c #000000",
"#7 c #000000",
"#8 c #000000",
"a` c #000000",
"a. c #000000",
"a# c #000000",
"aa c #000000",
"ab c #000000",
"ac c #000000",
"ad c #000000",
"ae c #000000",
"af c #000000",
"ag c #000000",
"ah c #000000",
"ai c #000000",
"aj c #000000",
"ak c #000000",
"al c #000000",
"am c #000000",
"an c #000000",
"ao c #000000",
"ap c #000000",
"aq c #000000",
"ar c #000000",
"as c #000000",
"at c #000000",
"au c #000000",
"av c #000000",
"aw c #000000",
"ax c #000000",
"ay c #000000",
"az c #000000",
"aA c #000000",
"aB c #000000",
"aC c #000000",
"aD c #000000",
"aE c #000000",
"aF c #000000",
"aG c #000000",
"aH c #000000",
"aI c #000000",
"aJ c #000000",
"aK c #000000",
"aL c #000000",
"aM c #000000",
"aN c #000000",
"aO c #000000",
"aP c #000000",
"aQ c #000000",
"aR c #000000",
"aS c #000000",
"aT c #000000",
"aU c #000000",
"aV c #000000",
"aW c #000000",
"aX c #000000",
"aY c #000000",
"aZ c #000000",
"a0 c #000000",
"a1 c #000000",
"a2 c #000000",
"a3 c #000000",
"a4 c #000000",
"a5 c #000000",
"a6 c #000000",
"a7 c #000000",
"a8 c #000000",
"````````````````````````````````",
"````````````````````````````````",
"````````````````````````````````",
"````````````````````````````````",
"`````.`#`#`.```````.`#`#`.``````",
"```.`a`b`c`d```````d`c`b`a`.````",
"`e`f`g```````````````````g`f`e``",
"`h`i`i`i`i`i`j```j`i`i`i`i`i`h``",
"`k`l`m`n`o`p`k`k`k`q`r`s`t`u`k``",
"`v`w`m`n`x`v`y`z`y`v`A`s`t`B`v``",
"`g`C`C`C`C`D`E`F`G`D`C`C`C`C`g``",
"`H`I`F`J`K`L`M`N`O`.`P`J`F`J`H``",
"````````````````````````````````",
"````````````````````````````````",
"````````````````````````````````",
"````````````````````````````````"
};
