/* XPM */
static const char *SAVE_XPM[] = {
"16 16 256 2",
"`` c None",
"`. c #777777",
"`# c #4e4e4e",
"`a c #b2c2c2",
"`b c #4c4c4c",
"`c c #848484",
"`d c #feffff",
"`e c #4b4b4b",
"`f c #7e7e7e",
"`g c #fbfefe",
"`h c #f8fbfb",
"`i c #494949",
"`j c #7c7c7c",
"`k c #f5fbfb",
"`l c #f0f6f6",
"`m c #464646",
"`n c #797979",
"`o c #eff8f8",
"`p c #e7f1f1",
"`q c #434343",
"`r c #757575",
"`s c #e9f6f6",
"`t c #dfecec",
"`u c #404040",
"`v c #727272",
"`w c #c9d4d4",
"`x c #e4f4f4",
"`y c #3d3d3d",
"`z c #6e6e6e",
"`A c #656565",
"`B c #3b3b3b",
"`C c #6b6b6b",
"`D c #343434",
"`E c #333333",
"`F c #737373",
"`G c #373737",
"`H c #676767",
"`I c #c7c7c8",
"`J c #c2c2c3",
"`K c #555555",
"`L c #3a3a3a",
"`M c #6f6f6f",
"`N c #646464",
"`O c #bbbbc0",
"`P c #272727",
"`Q c #b2b2b7",
"`R c #424242",
"`S c #6c6c6c",
"`T c #2e2e2e",
"`U c #666666",
"`V c #3f3f3f",
"`W c #b1b1ba",
"`X c #a8a8b1",
"`Y c #4a4a4a",
"`Z c #6a6a6a",
"`0 c #a8a8a8",
"`1 c #212121",
"`2 c #ababb9",
"`3 c #a7a7b5",
"`4 c #525252",
"`5 c #686868",
"`6 c #a3a3a3",
"`7 c #161616",
"`8 c #707070",
".` c #4d4d4d",
".. c #000000",
".# c #000000",
".a c #000000",
".b c #000000",
".c c #000000",
".d c #000000",
".e c #000000",
".f c #000000",
".g c #000000",
".h c #000000",
".i c #000000",
".j c #000000",
".k c #000000",
".l c #000000",
".m c #000000",
".n c #000000",
".o c #000000",
".p c #000000",
".q c #000000",
".r c #000000",
".s c #000000",
".t c #000000",
".u c #000000",
".v c #000000",
".w c #000000",
".x c #000000",
".y c #000000",
".z c #000000",
".A c #000000",
".B c #000000",
".C c #000000",
".D c #000000",
".E c #000000",
".F c #000000",
".G c #000000",
".H c #000000",
".I c #000000",
".J c #000000",
".K c #000000",
".L c #000000",
".M c #000000",
".N c #000000",
".O c #000000",
".P c #000000",
".Q c #000000",
".R c #000000",
".S c #000000",
".T c #000000",
".U c #000000",
".V c #000000",
".W c #000000",
".X c #000000",
".Y c #000000",
".Z c #000000",
".0 c #000000",
".1 c #000000",
".2 c #000000",
".3 c #000000",
".4 c #000000",
".5 c #000000",
".6 c #000000",
".7 c #000000",
".8 c #000000",
"#` c #000000",
"#. c #000000",
"## c #000000",
"#a c #000000",
"#b c #000000",
"#c c #000000",
"#d c #000000",
"#e c #000000",
"#f c #000000",
"#g c #000000",
"#h c #000000",
"#i c #000000",
"#j c #000000",
"#k c #000000",
"#l c #000000",
"#m c #000000",
"#n c #000000",
"#o c #000000",
"#p c #000000",
"#q c #000000",
"#r c #000000",
"#s c #000000",
"#t c #000000",
"#u c #000000",
"#v c #000000",
"#w c #000000",
"#x c #000000",
"#y c #000000",
"#z c #000000",
"#A c #000000",
"#B c #000000",
"#C c #000000",
"#D c #000000",
"#E c #000000",
"#F c #000000",
"#G c #000000",
"#H c #000000",
"#I c #000000",
"#J c #000000",
"#K c #000000",
"#L c #000000",
"#M c #000000",
"#N c #000000",
"#O c #000000",
"#P c #000000",
"#Q c #000000",
"#R c #000000",
"#S c #000000",
"#T c #000000",
"#U c #000000",
"#V c #000000",
"#W c #000000",
"#X c #000000",
"#Y c #000000",
"#Z c #000000",
"#0 c #000000",
"#1 c #000000",
"#2 c #000000",
"#3 c #000000",
"#4 c #000000",
"#5 c #000000",
"#6 c #000000",
"#7 c #000000",
"#8 c #000000",
"a` c #000000",
"a. c #000000",
"a# c #000000",
"aa c #000000",
"ab c #000000",
"ac c #000000",
"ad c #000000",
"ae c #000000",
"af c #000000",
"ag c #000000",
"ah c #000000",
"ai c #000000",
"aj c #000000",
"ak c #000000",
"al c #000000",
"am c #000000",
"an c #000000",
"ao c #000000",
"ap c #000000",
"aq c #000000",
"ar c #000000",
"as c #000000",
"at c #000000",
"au c #000000",
"av c #000000",
"aw c #000000",
"ax c #000000",
"ay c #000000",
"az c #000000",
"aA c #000000",
"aB c #000000",
"aC c #000000",
"aD c #000000",
"aE c #000000",
"aF c #000000",
"aG c #000000",
"aH c #000000",
"aI c #000000",
"aJ c #000000",
"aK c #000000",
"aL c #000000",
"aM c #000000",
"aN c #000000",
"aO c #000000",
"aP c #000000",
"aQ c #000000",
"aR c #000000",
"aS c #000000",
"aT c #000000",
"aU c #000000",
"aV c #000000",
"aW c #000000",
"aX c #000000",
"aY c #000000",
"aZ c #000000",
"a0 c #000000",
"a1 c #000000",
"a2 c #000000",
"a3 c #000000",
"a4 c #000000",
"a5 c #000000",
"a6 c #000000",
"a7 c #000000",
"a8 c #000000",
"````````````````````````````````",
"```.`#`a`a`a`a`a`a`a`a`a`a`#`.``",
"```b`c```d`d`d`d`d`d`d`d```c`b``",
"```e`f`g`h`h`h`h`h`h`h`h`g`f`e``",
"```i`j`k`l`l`l`l`l`l`l`l`k`j`i``",
"```m`n`o`p`p`p`p`p`p`p`p`o`n`m``",
"```q`r`s`t`t`t`t`t`t`t`t`s`r`q``",
"```u`v`w`x`x`x`x`x`x`x`x`w`v`u``",
"```y`z`A`A`A`A`A`A`A`A`A`A`z`y``",
"```B`C`D`E`E`E`E`E`E`D`D`D`F`B``",
"```G`H`G`I`J`J`J`J`I`G`K`L`M`G``",
"```E`N`B`O`P`P`Q`Q`O`B`K`R`S`E``",
"```T`U`V`W`V`V`X`X`W`V`K`Y`Z`T``",
"```0`1`D`2`q`q`3`3`2`q`K`4`5`1``",
"`````6`7`8`8`8`8`8`8`7`7`7`7.```",
"````````````````````````````````"
};
