/* XPM */
static const char *ZOOM_IN_XPM[] = {
"16 16 256 2",
"`` c None",
"`. c #d9dfef",
"`# c #99aeed",
"`a c #7593ec",
"`b c #6688ec",
"`c c #bfcaea",
"`d c #6d8be2",
"`e c #99b1e7",
"`f c #c4d3ed",
"`g c #e0e8f3",
"`h c #cfdaf1",
"`i c #a1b6ea",
"`j c #d5daea",
"`k c #607ed4",
"`l c #afc2e5",
"`m c #ceddec",
"`n c #eaf0f6",
"`o c #f1f5f9",
"`p c #ebf1f7",
"`q c #e4ecf4",
"`r c #b4c6e7",
"`s c #617ed4",
"`t c #7f94d2",
"`u c #8aa2d7",
"`v c #c8d9e9",
"`w c #dae5f0",
"`x c #3a5cc0",
"`y c #e6edf4",
"`z c #dbe6f1",
"`A c #8da3d8",
"`B c #4462b9",
"`C c #b4c6e2",
"`D c #d2e1ee",
"`E c #dfe9f3",
"`F c #eef3f9",
"`G c #2c4eb2",
"`H c #b8c9e3",
"`I c #2849ac",
"`J c #c6d7e9",
"`K c #2446ab",
"`L c #f0f5f9",
"`M c #cddbec",
"`N c #3b59b5",
"`O c #b5c6e2",
"`P c #f8fafc",
"`Q c #2244ad",
"`R c #ebf0f7",
"`S c #bac9e4",
"`T c #7489cd",
"`U c #859ad5",
"`V c #cadbeb",
"`W c #e2eaf3",
"`X c #2749b8",
"`Y c #899cd6",
"`Z c #c5c8d1",
"`0 c #4361c7",
"`1 c #aebee3",
"`2 c #dde8f2",
"`3 c #e7eff5",
"`4 c #bdc9eb",
"`5 c #4a67cd",
"`6 c #d1d6e9",
"`7 c #d9d9d9",
"`8 c #9e9e9e",
".` c #8893bc",
".. c #4865d2",
".# c #94a7e8",
".a c #d0d9f3",
".b c #e8eef6",
".c c #d1daf3",
".d c #98aaea",
".e c #5270dc",
".f c #b5c0e8",
".g c #d2d2d2",
".h c #9d9d9d",
".i c #b8b8bc",
".j c #7f7f80",
".k c #bec3d5",
".l c #8499ea",
".m c #5674e8",
".n c #4465e7",
".o c #d4d9ee",
".p c #c8c8c8",
".q c #9c9c9d",
".r c #c4c4cc",
".s c #7e7e7e",
".t c #cdcdcd",
".u c #bbbbbb",
".v c #9e9ea0",
".w c #d1d1dd",
".x c #7d7d7f",
".y c #c0c0c0",
".z c #9b9b9b",
".A c #dadaea",
".B c #828284",
".C c #b1b1b1",
".D c #d0d0d0",
".E c #000000",
".F c #000000",
".G c #000000",
".H c #000000",
".I c #000000",
".J c #000000",
".K c #000000",
".L c #000000",
".M c #000000",
".N c #000000",
".O c #000000",
".P c #000000",
".Q c #000000",
".R c #000000",
".S c #000000",
".T c #000000",
".U c #000000",
".V c #000000",
".W c #000000",
".X c #000000",
".Y c #000000",
".Z c #000000",
".0 c #000000",
".1 c #000000",
".2 c #000000",
".3 c #000000",
".4 c #000000",
".5 c #000000",
".6 c #000000",
".7 c #000000",
".8 c #000000",
"#` c #000000",
"#. c #000000",
"## c #000000",
"#a c #000000",
"#b c #000000",
"#c c #000000",
"#d c #000000",
"#e c #000000",
"#f c #000000",
"#g c #000000",
"#h c #000000",
"#i c #000000",
"#j c #000000",
"#k c #000000",
"#l c #000000",
"#m c #000000",
"#n c #000000",
"#o c #000000",
"#p c #000000",
"#q c #000000",
"#r c #000000",
"#s c #000000",
"#t c #000000",
"#u c #000000",
"#v c #000000",
"#w c #000000",
"#x c #000000",
"#y c #000000",
"#z c #000000",
"#A c #000000",
"#B c #000000",
"#C c #000000",
"#D c #000000",
"#E c #000000",
"#F c #000000",
"#G c #000000",
"#H c #000000",
"#I c #000000",
"#J c #000000",
"#K c #000000",
"#L c #000000",
"#M c #000000",
"#N c #000000",
"#O c #000000",
"#P c #000000",
"#Q c #000000",
"#R c #000000",
"#S c #000000",
"#T c #000000",
"#U c #000000",
"#V c #000000",
"#W c #000000",
"#X c #000000",
"#Y c #000000",
"#Z c #000000",
"#0 c #000000",
"#1 c #000000",
"#2 c #000000",
"#3 c #000000",
"#4 c #000000",
"#5 c #000000",
"#6 c #000000",
"#7 c #000000",
"#8 c #000000",
"a` c #000000",
"a. c #000000",
"a# c #000000",
"aa c #000000",
"ab c #000000",
"ac c #000000",
"ad c #000000",
"ae c #000000",
"af c #000000",
"ag c #000000",
"ah c #000000",
"ai c #000000",
"aj c #000000",
"ak c #000000",
"al c #000000",
"am c #000000",
"an c #000000",
"ao c #000000",
"ap c #000000",
"aq c #000000",
"ar c #000000",
"as c #000000",
"at c #000000",
"au c #000000",
"av c #000000",
"aw c #000000",
"ax c #000000",
"ay c #000000",
"az c #000000",
"aA c #000000",
"aB c #000000",
"aC c #000000",
"aD c #000000",
"aE c #000000",
"aF c #000000",
"aG c #000000",
"aH c #000000",
"aI c #000000",
"aJ c #000000",
"aK c #000000",
"aL c #000000",
"aM c #000000",
"aN c #000000",
"aO c #000000",
"aP c #000000",
"aQ c #000000",
"aR c #000000",
"aS c #000000",
"aT c #000000",
"aU c #000000",
"aV c #000000",
"aW c #000000",
"aX c #000000",
"aY c #000000",
"aZ c #000000",
"a0 c #000000",
"a1 c #000000",
"a2 c #000000",
"a3 c #000000",
"a4 c #000000",
"a5 c #000000",
"a6 c #000000",
"a7 c #000000",
"a8 c #000000",
"```````````````.`#`a`b`a`#`.````",
"`````````````c`d`e`f`g`h`i`d`c``",
"```````````j`k`l`m`n`o`p`q`r`s`j",
"```````````t`u`v`w`o`x`o`y`z`A`t",
"```````````B`C`D`E`F`G`F`E`D`H`B",
"```````````I`J`E`K`K`K`K`K`L`M`I",
"```````````N`O`D`L`P`Q`P`o`R`S`N",
"```````````T`U`V`W`o`X`o`y`q`Y`T",
"```````````Z`0`1`2`p`o`p`3`4`5`6",
"`````````7`8.`...#.a.b.c.d.e.f``",
"``````.g.h.i.j.k.l.m.n.m.l.o````",
"````.p.q.r.s.t``````````````````",
"``.u.v.w.x.y````````````````````",
"``.z.A.B.C``````````````````````",
"``.D.s.z````````````````````````",
"````````````````````````````````"
};
