/* XPM */
static const char *ZOOM_OUT_XPM[] = {
"16 16 256 2",
"`` c None",
"`. c #d9dfef",
"`# c #99aeed",
"`a c #7593ec",
"`b c #6688ec",
"`c c #bfcaea",
"`d c #6d8be2",
"`e c #99b1e7",
"`f c #c4d3ed",
"`g c #e0e8f3",
"`h c #cfdaf1",
"`i c #a1b6ea",
"`j c #d5daea",
"`k c #607ed4",
"`l c #afc2e5",
"`m c #ceddec",
"`n c #e4ecf4",
"`o c #e6edf4",
"`p c #b4c6e7",
"`q c #617ed4",
"`r c #7f94d2",
"`s c #8aa2d7",
"`t c #c8d9e9",
"`u c #dae5f0",
"`v c #dbe6f1",
"`w c #8da3d8",
"`x c #4462b9",
"`y c #b4c6e2",
"`z c #d2e1ee",
"`A c #dfe9f3",
"`B c #b8c9e3",
"`C c #2849ac",
"`D c #c6d7e9",
"`E c #2446ab",
"`F c #f0f5f9",
"`G c #cddbec",
"`H c #3b59b5",
"`I c #b5c6e2",
"`J c #f1f5f9",
"`K c #ebf0f7",
"`L c #bac9e4",
"`M c #7489cd",
"`N c #859ad5",
"`O c #cadbeb",
"`P c #e2eaf3",
"`Q c #899cd6",
"`R c #c5c8d1",
"`S c #4361c7",
"`T c #aebee3",
"`U c #dde8f2",
"`V c #e7eff5",
"`W c #bdc9eb",
"`X c #4a67cd",
"`Y c #d1d6e9",
"`Z c #d9d9d9",
"`0 c #9e9e9e",
"`1 c #8893bc",
"`2 c #4865d2",
"`3 c #94a7e8",
"`4 c #d0d9f3",
"`5 c #e8eef6",
"`6 c #d1daf3",
"`7 c #98aaea",
"`8 c #5270dc",
".` c #b5c0e8",
".. c #d2d2d2",
".# c #9d9d9d",
".a c #b8b8bc",
".b c #7f7f80",
".c c #bec3d5",
".d c #8499ea",
".e c #5674e8",
".f c #4465e7",
".g c #d4d9ee",
".h c #c8c8c8",
".i c #9c9c9d",
".j c #c4c4cc",
".k c #7e7e7e",
".l c #cdcdcd",
".m c #bbbbbb",
".n c #9e9ea0",
".o c #d1d1dd",
".p c #7d7d7f",
".q c #c0c0c0",
".r c #9b9b9b",
".s c #dadaea",
".t c #828284",
".u c #b1b1b1",
".v c #d0d0d0",
".w c #000000",
".x c #000000",
".y c #000000",
".z c #000000",
".A c #000000",
".B c #000000",
".C c #000000",
".D c #000000",
".E c #000000",
".F c #000000",
".G c #000000",
".H c #000000",
".I c #000000",
".J c #000000",
".K c #000000",
".L c #000000",
".M c #000000",
".N c #000000",
".O c #000000",
".P c #000000",
".Q c #000000",
".R c #000000",
".S c #000000",
".T c #000000",
".U c #000000",
".V c #000000",
".W c #000000",
".X c #000000",
".Y c #000000",
".Z c #000000",
".0 c #000000",
".1 c #000000",
".2 c #000000",
".3 c #000000",
".4 c #000000",
".5 c #000000",
".6 c #000000",
".7 c #000000",
".8 c #000000",
"#` c #000000",
"#. c #000000",
"## c #000000",
"#a c #000000",
"#b c #000000",
"#c c #000000",
"#d c #000000",
"#e c #000000",
"#f c #000000",
"#g c #000000",
"#h c #000000",
"#i c #000000",
"#j c #000000",
"#k c #000000",
"#l c #000000",
"#m c #000000",
"#n c #000000",
"#o c #000000",
"#p c #000000",
"#q c #000000",
"#r c #000000",
"#s c #000000",
"#t c #000000",
"#u c #000000",
"#v c #000000",
"#w c #000000",
"#x c #000000",
"#y c #000000",
"#z c #000000",
"#A c #000000",
"#B c #000000",
"#C c #000000",
"#D c #000000",
"#E c #000000",
"#F c #000000",
"#G c #000000",
"#H c #000000",
"#I c #000000",
"#J c #000000",
"#K c #000000",
"#L c #000000",
"#M c #000000",
"#N c #000000",
"#O c #000000",
"#P c #000000",
"#Q c #000000",
"#R c #000000",
"#S c #000000",
"#T c #000000",
"#U c #000000",
"#V c #000000",
"#W c #000000",
"#X c #000000",
"#Y c #000000",
"#Z c #000000",
"#0 c #000000",
"#1 c #000000",
"#2 c #000000",
"#3 c #000000",
"#4 c #000000",
"#5 c #000000",
"#6 c #000000",
"#7 c #000000",
"#8 c #000000",
"a` c #000000",
"a. c #000000",
"a# c #000000",
"aa c #000000",
"ab c #000000",
"ac c #000000",
"ad c #000000",
"ae c #000000",
"af c #000000",
"ag c #000000",
"ah c #000000",
"ai c #000000",
"aj c #000000",
"ak c #000000",
"al c #000000",
"am c #000000",
"an c #000000",
"ao c #000000",
"ap c #000000",
"aq c #000000",
"ar c #000000",
"as c #000000",
"at c #000000",
"au c #000000",
"av c #000000",
"aw c #000000",
"ax c #000000",
"ay c #000000",
"az c #000000",
"aA c #000000",
"aB c #000000",
"aC c #000000",
"aD c #000000",
"aE c #000000",
"aF c #000000",
"aG c #000000",
"aH c #000000",
"aI c #000000",
"aJ c #000000",
"aK c #000000",
"aL c #000000",
"aM c #000000",
"aN c #000000",
"aO c #000000",
"aP c #000000",
"aQ c #000000",
"aR c #000000",
"aS c #000000",
"aT c #000000",
"aU c #000000",
"aV c #000000",
"aW c #000000",
"aX c #000000",
"aY c #000000",
"aZ c #000000",
"a0 c #000000",
"a1 c #000000",
"a2 c #000000",
"a3 c #000000",
"a4 c #000000",
"a5 c #000000",
"a6 c #000000",
"a7 c #000000",
"a8 c #000000",
"```````````````.`#`a`b`a`#`.````",
"`````````````c`d`e`f`g`h`i`d`c``",
"```````````j`k`l`m`n`o`o`n`p`q`j",
"```````````r`s`t`u`o`o`o`o`v`w`r",
"```````````x`y`z`A`A`A`A`A`z`B`x",
"```````````C`D`A`E`E`E`E`E`F`G`C",
"```````````H`I`z`F`J`J`J`J`K`L`H",
"```````````M`N`O`P`o`o`o`o`n`Q`M",
"```````````R`S`T`U`o`o`o`V`W`X`Y",
"`````````Z`0`1`2`3`4`5`6`7`8.```",
"``````...#.a.b.c.d.e.f.e.d.g````",
"````.h.i.j.k.l``````````````````",
"``.m.n.o.p.q````````````````````",
"``.r.s.t.u``````````````````````",
"``.v.k.r````````````````````````",
"````````````````````````````````"
};
